<mxfile host="Electron" modified="2024-04-08T13:45:50.186Z" agent="Mozilla/5.0 (Windows NT 10.0; Win64; x64) AppleWebKit/537.36 (KHTML, like Gecko) draw.io/24.1.0 Chrome/120.0.6099.109 Electron/28.1.0 Safari/537.36" etag="_-NNItMr5Hqt8pgw_jKu" version="24.1.0" type="device">
  <diagram name="Page-1" id="pjPmQMq-xpTzT-B9CCRX">
    <mxGraphModel dx="1909" dy="1129" grid="1" gridSize="10" guides="1" tooltips="1" connect="1" arrows="1" fold="1" page="1" pageScale="1" pageWidth="827" pageHeight="1169" math="0" shadow="0">
      <root>
        <mxCell id="0" />
        <mxCell id="1" parent="0" />
        <mxCell id="Y1R60VM9oQ_5XT8ziqEK-10" value="frame" style="shape=umlFrame;whiteSpace=wrap;html=1;pointerEvents=0;width=300;height=30;" vertex="1" parent="1">
          <mxGeometry x="230" y="80" width="490" height="650" as="geometry" />
        </mxCell>
        <mxCell id="Y1R60VM9oQ_5XT8ziqEK-32" style="edgeStyle=orthogonalEdgeStyle;rounded=0;orthogonalLoop=1;jettySize=auto;html=1;" edge="1" parent="1" source="Y1R60VM9oQ_5XT8ziqEK-11" target="Y1R60VM9oQ_5XT8ziqEK-14">
          <mxGeometry relative="1" as="geometry" />
        </mxCell>
        <mxCell id="Y1R60VM9oQ_5XT8ziqEK-11" value="Client" style="shape=umlActor;verticalLabelPosition=bottom;verticalAlign=top;html=1;" vertex="1" parent="1">
          <mxGeometry x="100" y="240" width="30" height="60" as="geometry" />
        </mxCell>
        <mxCell id="Y1R60VM9oQ_5XT8ziqEK-14" value="Tour de manÃ¨ge" style="ellipse;whiteSpace=wrap;html=1;" vertex="1" parent="1">
          <mxGeometry x="260" y="280" width="100" height="70" as="geometry" />
        </mxCell>
        <mxCell id="Y1R60VM9oQ_5XT8ziqEK-15" value="&amp;lt;&amp;lt;include&amp;gt;&amp;gt;" style="html=1;verticalAlign=bottom;labelBackgroundColor=none;endArrow=open;endFill=0;dashed=1;rounded=0;entryX=0;entryY=0.5;entryDx=0;entryDy=0;" edge="1" parent="1" target="Y1R60VM9oQ_5XT8ziqEK-17">
          <mxGeometry width="160" relative="1" as="geometry">
            <mxPoint x="330" y="320" as="sourcePoint" />
            <mxPoint x="490" y="320" as="targetPoint" />
          </mxGeometry>
        </mxCell>
        <mxCell id="Y1R60VM9oQ_5XT8ziqEK-28" style="edgeStyle=orthogonalEdgeStyle;rounded=0;orthogonalLoop=1;jettySize=auto;html=1;" edge="1" parent="1" source="Y1R60VM9oQ_5XT8ziqEK-17" target="Y1R60VM9oQ_5XT8ziqEK-26">
          <mxGeometry relative="1" as="geometry" />
        </mxCell>
        <mxCell id="Y1R60VM9oQ_5XT8ziqEK-17" value="Paiement&lt;div&gt;&lt;br&gt;&lt;/div&gt;" style="ellipse;whiteSpace=wrap;html=1;" vertex="1" parent="1">
          <mxGeometry x="450" y="150" width="100" height="70" as="geometry" />
        </mxCell>
        <mxCell id="Y1R60VM9oQ_5XT8ziqEK-18" value="Attente" style="ellipse;whiteSpace=wrap;html=1;" vertex="1" parent="1">
          <mxGeometry x="470" y="250" width="100" height="70" as="geometry" />
        </mxCell>
        <mxCell id="Y1R60VM9oQ_5XT8ziqEK-19" value="Installer" style="ellipse;whiteSpace=wrap;html=1;" vertex="1" parent="1">
          <mxGeometry x="480" y="340" width="100" height="70" as="geometry" />
        </mxCell>
        <mxCell id="Y1R60VM9oQ_5XT8ziqEK-20" value="Attendre fin tour" style="ellipse;whiteSpace=wrap;html=1;" vertex="1" parent="1">
          <mxGeometry x="470" y="440" width="100" height="70" as="geometry" />
        </mxCell>
        <mxCell id="Y1R60VM9oQ_5XT8ziqEK-21" value="Sortir" style="ellipse;whiteSpace=wrap;html=1;" vertex="1" parent="1">
          <mxGeometry x="470" y="530" width="100" height="70" as="geometry" />
        </mxCell>
        <mxCell id="Y1R60VM9oQ_5XT8ziqEK-22" value="&amp;lt;&amp;lt;include&amp;gt;&amp;gt;" style="html=1;verticalAlign=bottom;labelBackgroundColor=none;endArrow=open;endFill=0;dashed=1;rounded=0;exitX=1;exitY=0.5;exitDx=0;exitDy=0;" edge="1" parent="1" source="Y1R60VM9oQ_5XT8ziqEK-14" target="Y1R60VM9oQ_5XT8ziqEK-18">
          <mxGeometry width="160" relative="1" as="geometry">
            <mxPoint x="340" y="330" as="sourcePoint" />
            <mxPoint x="390" y="195" as="targetPoint" />
          </mxGeometry>
        </mxCell>
        <mxCell id="Y1R60VM9oQ_5XT8ziqEK-26" value="Caissier" style="shape=umlActor;verticalLabelPosition=bottom;verticalAlign=top;html=1;" vertex="1" parent="1">
          <mxGeometry x="740" y="230" width="30" height="60" as="geometry" />
        </mxCell>
        <mxCell id="Y1R60VM9oQ_5XT8ziqEK-29" value="&amp;lt;&amp;lt;include&amp;gt;&amp;gt;" style="html=1;verticalAlign=bottom;labelBackgroundColor=none;endArrow=open;endFill=0;dashed=1;rounded=0;exitX=1.012;exitY=0.697;exitDx=0;exitDy=0;entryX=0.092;entryY=0.274;entryDx=0;entryDy=0;entryPerimeter=0;exitPerimeter=0;" edge="1" parent="1" source="Y1R60VM9oQ_5XT8ziqEK-14" target="Y1R60VM9oQ_5XT8ziqEK-19">
          <mxGeometry width="160" relative="1" as="geometry">
            <mxPoint x="370" y="325" as="sourcePoint" />
            <mxPoint x="482" y="304" as="targetPoint" />
          </mxGeometry>
        </mxCell>
        <mxCell id="Y1R60VM9oQ_5XT8ziqEK-30" value="&amp;lt;&amp;lt;include&amp;gt;&amp;gt;" style="html=1;verticalAlign=bottom;labelBackgroundColor=none;endArrow=open;endFill=0;dashed=1;rounded=0;" edge="1" parent="1" source="Y1R60VM9oQ_5XT8ziqEK-14" target="Y1R60VM9oQ_5XT8ziqEK-20">
          <mxGeometry width="160" relative="1" as="geometry">
            <mxPoint x="320" y="451" as="sourcePoint" />
            <mxPoint x="432" y="430" as="targetPoint" />
          </mxGeometry>
        </mxCell>
        <mxCell id="Y1R60VM9oQ_5XT8ziqEK-31" value="&amp;lt;&amp;lt;include&amp;gt;&amp;gt;" style="html=1;verticalAlign=bottom;labelBackgroundColor=none;endArrow=open;endFill=0;dashed=1;rounded=0;exitX=0.676;exitY=0.971;exitDx=0;exitDy=0;entryX=-0.008;entryY=0.36;entryDx=0;entryDy=0;entryPerimeter=0;exitPerimeter=0;" edge="1" parent="1" source="Y1R60VM9oQ_5XT8ziqEK-14" target="Y1R60VM9oQ_5XT8ziqEK-21">
          <mxGeometry width="160" relative="1" as="geometry">
            <mxPoint x="390" y="345" as="sourcePoint" />
            <mxPoint x="502" y="324" as="targetPoint" />
            <Array as="points" />
          </mxGeometry>
        </mxCell>
      </root>
    </mxGraphModel>
  </diagram>
</mxfile>
